<?xml version="1.0" standalone="no"?>
<!DOCTYPE svg PUBLIC "-//W3C//DTD SVG 20010904//EN"
 "http://www.w3.org/TR/2001/REC-SVG-20010904/DTD/svg10.dtd">
<svg version="1.0" xmlns="http://www.w3.org/2000/svg"
 width="810.000000pt" height="810.000000pt" viewBox="0 0 810.000000 810.000000"
 preserveAspectRatio="xMidYMid meet">

<g transform="translate(0.000000,810.000000) scale(0.100000,-0.100000)"
fill="#000000" stroke="none">
<path d="M3895 7715 c-288 -27 -562 -90 -845 -193 -359 -131 -663 -304 -989
-565 -90 -72 -403 -382 -452 -448 -19 -25 -62 -82 -95 -126 -342 -441 -581
-1018 -654 -1573 -24 -188 -32 -392 -20 -577 17 -295 53 -585 87 -713 8 -30
16 -66 19 -80 2 -14 7 -32 10 -40 3 -8 16 -58 30 -110 14 -52 29 -106 34 -120
5 -14 27 -79 50 -145 23 -66 46 -131 52 -145 6 -14 14 -34 19 -45 152 -382
363 -739 674 -1141 39 -49 74 -94 80 -100 5 -6 35 -40 65 -75 134 -158 454
-466 575 -555 22 -16 42 -31 45 -34 9 -9 114 -86 180 -132 87 -61 295 -182
361 -212 30 -13 83 -37 119 -54 84 -38 241 -89 355 -113 320 -70 622 -64 925
16 140 37 527 212 770 347 206 115 309 190 415 298 67 69 361 334 416 375 23
17 61 49 177 146 27 23 30 80 5 100 -24 21 -114 15 -184 -11 -59 -22 -201 -92
-264 -130 -135 -81 -596 -315 -745 -378 -83 -36 -228 -83 -294 -96 -11 -3 -43
-10 -71 -16 -27 -6 -84 -15 -125 -20 -41 -6 -88 -12 -105 -15 -89 -12 -292
-16 -379 -6 -109 11 -177 38 -209 82 -56 77 42 125 388 188 232 43 468 97 520
120 112 49 137 65 152 96 21 44 10 100 -23 121 -20 14 -41 15 -117 11 -50 -3
-123 -11 -162 -16 -77 -12 -186 -23 -400 -42 -239 -21 -627 6 -826 57 -32 8
-67 17 -76 19 -10 2 -52 13 -93 24 -158 42 -310 63 -470 66 -102 1 -165 6
-185 15 -191 84 -205 94 -350 237 -156 153 -226 232 -331 373 -333 448 -536
951 -610 1508 -9 65 -18 216 -21 337 -6 274 14 469 77 760 26 122 109 387 149
479 84 192 163 350 222 445 16 25 37 62 48 81 22 40 184 259 251 340 52 62
300 314 346 350 17 14 62 50 100 81 93 74 259 191 342 240 525 307 1070 456
1662 453 159 0 357 -16 450 -34 25 -5 86 -17 135 -26 857 -159 1657 -717 2102
-1468 67 -114 68 -103 2 22 -95 178 -224 370 -363 542 -78 95 -368 386 -466
467 -89 73 -236 183 -246 183 -3 0 -23 13 -43 28 -131 102 -508 291 -741 372
-172 59 -408 119 -575 146 -262 43 -608 54 -880 29z"/>
<path d="M4198 7315 c-4 -6 -8 -55 -9 -109 -3 -79 -6 -99 -20 -106 -13 -7 -18
-31 -24 -107 -4 -57 -13 -106 -22 -120 -9 -14 -17 -60 -20 -125 -5 -78 -10
-106 -22 -115 -13 -9 -17 -38 -19 -161 l-3 -150 -30 -6 c-37 -7 -38 -24 -2
-28 44 -5 40 -32 -11 -80 -25 -23 -46 -48 -46 -56 0 -8 -11 -23 -25 -34 -14
-11 -25 -28 -25 -38 0 -11 -7 -23 -16 -28 -9 -5 -17 -21 -17 -35 -2 -21 -7
-27 -24 -27 -12 0 -27 -9 -33 -20 -6 -11 -18 -20 -27 -20 -17 0 -93 -71 -93
-88 0 -5 -6 -15 -14 -21 -22 -18 -28 -74 -28 -244 0 -102 4 -163 11 -170 16
-16 13 -27 -8 -27 -38 0 -51 -11 -51 -44 0 -28 31 -132 60 -201 62 -150 70
-191 70 -377 l0 -168 29 0 c40 0 59 29 67 104 l7 59 29 -58 c27 -52 30 -66 26
-134 -8 -160 -43 -182 -378 -241 -323 -57 -392 -82 -452 -164 -70 -95 -92
-190 -108 -471 -6 -104 -13 -208 -16 -230 -13 -122 -35 -292 -39 -305 -2 -8
-9 -51 -15 -95 -6 -44 -19 -136 -29 -203 -19 -123 -18 -146 4 -189 16 -31 90
-109 156 -164 47 -40 204 -149 214 -149 2 0 30 -16 62 -35 l58 -35 -100 0
c-104 0 -462 -17 -553 -25 -281 -28 -439 -49 -451 -61 -3 -3 50 -60 119 -127
110 -107 134 -125 215 -162 l90 -42 180 -6 c177 -5 358 -32 478 -71 38 -13 77
-23 117 -31 8 -2 51 -11 95 -20 145 -31 263 -19 410 42 72 30 170 34 206 9 43
-30 163 -13 369 51 80 25 149 46 155 48 5 1 17 5 25 8 13 5 152 48 390 121
126 39 323 83 425 96 129 17 135 18 144 42 7 18 9 19 14 5 15 -41 -10 -49
-248 -82 -22 -3 -56 -8 -75 -11 -63 -11 -440 -121 -675 -198 -292 -95 -301
-97 -414 -106 -84 -6 -99 -5 -128 13 -43 25 -103 20 -199 -16 -38 -14 -91 -32
-118 -39 l-48 -13 38 -7 c22 -4 128 -7 237 -7 194 -1 384 13 602 45 61 9 155
17 210 18 85 1 106 -2 142 -21 45 -25 80 -63 89 -100 6 -23 7 -23 54 19 67 60
68 61 130 88 52 23 135 30 220 20 14 -1 57 11 95 27 119 50 186 64 305 64 92
0 118 -4 169 -24 36 -15 65 -21 73 -16 7 5 46 9 87 9 62 0 82 -4 117 -25 l43
-26 8 28 c4 16 7 64 7 108 -2 102 -20 141 -107 222 -103 96 -178 113 -504 119
-138 2 -232 8 -250 16 -15 6 -70 12 -120 12 -63 1 -93 5 -93 12 0 18 113 233
191 364 78 131 77 125 59 338 -5 65 -14 200 -20 302 -34 562 -52 683 -122 815
-51 97 -106 129 -310 181 -79 20 -148 42 -154 50 -7 8 -40 20 -75 25 -35 6
-109 22 -164 35 -89 22 -101 23 -111 9 -26 -35 -84 -5 -108 56 -10 23 -16 69
-16 113 0 63 5 83 30 131 l30 57 0 -48 c0 -65 19 -113 47 -120 45 -12 46 -7
48 177 1 164 3 178 29 249 60 159 106 296 106 316 0 28 -19 44 -53 44 -26 0
-28 2 -16 16 12 15 20 56 20 107 -1 9 0 24 0 32 3 186 -7 275 -30 283 -6 2
-11 10 -11 17 0 21 -74 95 -96 95 -10 0 -25 9 -32 20 -7 11 -21 20 -31 20 -11
0 -23 9 -26 21 -7 22 -45 83 -67 109 -7 8 -18 27 -25 42 -7 15 -16 28 -21 28
-5 0 -23 14 -41 30 -26 25 -30 34 -21 50 6 11 20 20 30 20 27 0 25 17 -2 26
-13 4 -26 12 -30 18 -4 6 -8 71 -8 145 0 98 -4 139 -13 150 -8 9 -19 63 -25
124 -7 71 -16 114 -26 126 -11 12 -16 41 -17 105 -1 72 -5 92 -20 107 -13 13
-19 35 -20 67 -2 79 -14 168 -21 157z m75 -1058 c-2 -4 -26 -5 -52 -1 -32 4
-51 2 -55 -5 -4 -6 -12 -8 -19 -4 -18 11 23 21 80 20 28 -1 49 -5 46 -10z
m-16 -202 c-12 -7 -26 -8 -32 -4 -5 4 -35 5 -65 3 -30 -3 -68 -5 -83 -4 -15 0
-35 -4 -45 -9 -9 -4 -26 -5 -37 0 -18 7 -18 8 5 8 14 1 48 4 75 9 28 4 85 8
127 8 64 0 73 -2 55 -11z m143 -5 l25 -1 -24 -10 c-16 -6 -28 -6 -37 2 -8 6
-25 9 -39 7 -14 -3 -28 -2 -30 2 -3 5 14 6 38 4 23 -2 53 -4 67 -4z m-440
-292 c-84 -17 -132 -48 -167 -108 -35 -57 -43 -61 -19 -7 18 39 41 65 81 94
36 25 57 31 110 31 l40 0 -45 -10z m540 2 c42 -12 108 -72 126 -117 23 -53 16
-50 -18 7 -46 76 -98 104 -193 104 -48 0 -60 2 -40 7 45 10 86 10 125 -1z
m-263 -254 c-16 -24 -53 -43 -64 -32 -3 3 6 10 20 15 14 6 31 20 37 31 6 12
14 19 17 16 3 -3 -2 -16 -10 -30z m-159 -34 c20 -10 47 -34 60 -52 30 -45 28
-59 -4 -20 -71 83 -234 102 -307 34 -15 -14 -27 -21 -27 -16 0 10 47 55 75 71
29 17 158 7 203 -17z m482 -7 c16 -16 30 -34 30 -39 0 -7 -3 -6 -8 1 -11 18
-93 53 -124 53 -71 0 -133 -22 -175 -65 -47 -47 -53 -46 -23 2 33 55 103 83
202 80 59 -2 71 -6 98 -32z m-813 -277 c-3 -7 -5 -2 -5 12 0 14 2 19 5 13 2
-7 2 -19 0 -25z m917 -55 c-7 -65 -20 -120 -39 -168 -17 -44 -15 -25 9 80 9
39 16 82 16 96 0 23 7 39 16 39 2 0 1 -21 -2 -47z m-888 -107 c8 -32 13 -60
11 -63 -9 -8 -26 58 -30 115 -3 31 -3 46 0 32 2 -14 11 -51 19 -84z m34 -111
c0 -5 -5 -3 -10 5 -5 8 -10 20 -10 25 0 6 5 3 10 -5 5 -8 10 -19 10 -25z m260
-331 c53 -16 202 -15 275 1 27 6 28 5 10 -7 -32 -21 -281 -18 -320 4 -38 22
-32 22 35 2z m355 -350 c-234 -226 -431 -340 -765 -444 -58 -17 -130 -45 -162
-61 -32 -16 -58 -26 -58 -21 0 20 140 86 294 137 248 82 421 175 551 295 74
69 256 220 263 219 4 0 -51 -56 -123 -125z m165 -71 c-21 -83 -85 -241 -94
-232 -3 2 13 56 34 119 21 63 46 144 56 180 27 95 30 40 4 -67z m397 -52 c-7
-176 -36 -315 -100 -473 -17 -43 -32 -77 -33 -75 -1 1 9 49 22 107 13 58 26
116 28 130 20 106 66 402 69 442 1 9 5 14 11 11 5 -4 7 -62 3 -142z m-1525
-594 c26 -45 54 -102 64 -127 9 -25 20 -49 24 -55 10 -14 55 -150 70 -210 7
-27 14 -104 16 -170 3 -133 -12 -210 -59 -302 l-27 -52 -128 106 c-70 58 -133
111 -141 118 -11 11 -10 28 9 112 57 254 110 560 110 632 0 17 3 31 8 31 4 0
28 -37 54 -83z m1820 -19 c-27 -68 -66 -202 -86 -298 -36 -167 -41 -193 -51
-300 -3 -30 -8 -63 -11 -72 -7 -25 4 -22 56 12 77 51 67 33 -16 -29 -44 -33
-135 -117 -203 -188 -68 -70 -173 -173 -233 -229 l-110 -101 -87 -7 c-88 -6
-134 -12 -161 -22 -10 -3 -11 -2 -5 4 9 8 62 28 105 40 8 2 45 6 81 9 l67 5
208 207 c115 113 222 216 237 228 16 12 28 32 29 45 0 34 28 304 33 325 36
158 66 245 123 361 40 83 55 89 24 10z m-1542 -1065 l55 -42 115 -4 c63 -2
174 -11 245 -20 107 -14 133 -21 148 -38 25 -31 21 -43 -8 -21 -18 14 -48 22
-112 27 -49 4 -115 14 -148 22 -44 11 -86 14 -156 10 l-96 -6 -69 72 c-38 39
-60 64 -49 56 11 -8 45 -34 75 -56z m505 -194 c20 -6 -19 -7 -118 -4 -130 4
-149 2 -154 -12 -4 -10 2 -23 18 -36 l24 -20 -25 8 c-39 11 -57 32 -44 52 6
10 21 20 33 23 33 8 232 0 266 -11z m742 -15 c-3 -3 -12 -4 -19 -1 -8 3 -5 6
6 6 11 1 17 -2 13 -5z m-112 -25 c-44 -10 -109 -26 -145 -34 -36 -9 -76 -18
-89 -21 -37 -8 -143 -45 -181 -64 -27 -13 -76 -19 -210 -25 -96 -4 -189 -6
-207 -6 -54 2 -263 89 -263 109 0 15 24 32 46 32 12 0 46 -11 75 -23 65 -29
255 -55 271 -39 14 14 3 18 -87 31 l-70 10 73 -5 c73 -4 112 -16 112 -34 0
-15 -67 -23 -140 -16 -103 10 -121 15 -167 42 -46 26 -68 30 -79 12 -12 -18
30 -44 117 -73 81 -27 82 -27 283 -20 193 7 203 8 261 35 66 31 225 74 320 85
33 4 69 11 80 16 11 4 34 8 50 7 17 0 -5 -8 -50 -19z m-1745 -9 c105 -8 259
-25 320 -35 14 -2 52 -9 85 -14 33 -6 74 -15 90 -20 28 -10 28 -10 -10 -6 -22
2 -67 7 -100 9 -134 11 -213 17 -260 21 -63 6 -431 25 -502 26 -29 1 -53 5
-53 10 0 16 263 22 430 9z m-453 -16 c-3 -3 -12 -4 -19 -1 -8 3 -5 6 6 6 11 1
17 -2 13 -5z"/>
<path d="M5815 1743 c-157 -33 -316 -115 -465 -242 -78 -65 -262 -253 -255
-259 2 -3 10 0 17 5 7 6 38 24 68 40 79 43 336 190 395 225 69 42 316 160 393
188 46 17 60 26 52 34 -11 11 -164 17 -205 9z"/>
<path d="M5389 1661 c-20 -4 -57 -19 -82 -34 -59 -35 -210 -206 -337 -382 -50
-69 -57 -75 155 121 77 71 184 165 237 209 64 52 93 82 85 87 -7 4 -14 7 -17
7 -3 -1 -21 -4 -41 -8z"/>
</g>
</svg>
